<svg xmlns="http://www.w3.org/2000/svg" width="200" height="200" viewBox="0 0 200 200">
  
  <g>
    <line x1="100.00" y1="32.00" x2="100.00" y2="16.00" stroke="#fff" stroke-width="6" stroke-linecap="round"></line>
    <line x1="134.00" y1="41.11" x2="142.00" y2="27.25" stroke="#fff" stroke-width="6" stroke-linecap="round"></line>
    <line x1="158.89" y1="66.00" x2="172.75" y2="58.00" stroke="#fff" stroke-width="6" stroke-linecap="round"></line>
    <line x1="168.00" y1="100.00" x2="184.00" y2="100.00" stroke="#fff" stroke-width="6" stroke-linecap="round"></line>
    <line x1="158.89" y1="134.00" x2="172.75" y2="142.00" stroke="#fff" stroke-width="6" stroke-linecap="round"></line>
    <line x1="134.00" y1="158.89" x2="142.00" y2="172.75" stroke="#fff" stroke-width="6" stroke-linecap="round"></line>
    <line x1="100.00" y1="168.00" x2="100.00" y2="184.00" stroke="#fff" stroke-width="6" stroke-linecap="round"></line>
    <line x1="66.00" y1="158.89" x2="58.00" y2="172.75" stroke="#fff" stroke-width="6" stroke-linecap="round"></line>
    <line x1="41.11" y1="134.00" x2="27.25" y2="142.00" stroke="#fff" stroke-width="6" stroke-linecap="round"></line>
    <line x1="32.00" y1="100.00" x2="16.00" y2="100.00" stroke="#fff" stroke-width="6" stroke-linecap="round"></line>
    <line x1="41.11" y1="66.00" x2="27.25" y2="58.00" stroke="#fff" stroke-width="6" stroke-linecap="round"></line>
    <line x1="66.00" y1="41.11" x2="58.00" y2="27.25" stroke="#fff" stroke-width="6" stroke-linecap="round"></line>
  </g>

  
  <circle cx="100" cy="100" r="54" fill="#ffc83d"></circle>

  
  <g fill="#1b1230">
    <rect x="70" y="76" width="6" height="16" rx="2.5"></rect>
    <rect x="80" y="76" width="6" height="16" rx="2.5"></rect>
    <rect x="119" y="80" width="6" height="8" rx="2.5"></rect>
  </g>

  
  <text x="100" y="109" text-anchor="middle" dominant-baseline="middle" font-family="Nunito, system-ui, sans-serif" font-weight="800" font-size="7" letter-spacing="2.6" fill="#1b1230">MINS</text>

  
  <path d="M 78 122 Q 100 136 122 122" fill="none" stroke="#1b1230" stroke-width="3.2" stroke-linecap="round" stroke-dasharray="14 4 14 4 7"></path>
</svg>